<svg width="221" height="280" xmlns="http://www.w3.org/2000/svg" xmlns:xlink="http://www.w3.org/1999/xlink" xml:space="preserve" overflow="hidden"><defs><clipPath id="clip0"><rect x="625" y="341" width="221" height="280"/></clipPath></defs><g clip-path="url(#clip0)" transform="translate(-625 -341)"><path d="M132.541 36.368 87.5037 0 0 0 0 155.978 36.368 155.978 36.368 36.368 132.541 36.368Z" fill="#231F20" transform="matrix(1 0 0 1.00024 625 342.475)"/><path d="M132.541 36.368 132.541 155.978 168.983 126.59 168.983 65.7563 132.541 36.368Z" fill="#736658" transform="matrix(1 0 0 1.00024 625 342.475)"/><path d="M36.368 192.346 87.5037 192.346 132.541 155.978 36.368 155.978 36.368 192.346Z" fill="#736658" transform="matrix(1 0 0 1.00024 625 342.475)"/><path d="M58.3358 256.119C58.3358 259.425 58.1888 261.997 57.9684 263.76 57.748 265.376 57.2337 266.699 56.3521 267.654 54.8092 269.27 52.8255 270.078 50.107 270.078L43.4947 270.078 43.4947 242.747 50.107 242.747C52.752 242.747 54.8092 243.556 56.3521 245.172 56.9398 245.76 57.3807 246.641 57.6745 247.743 57.9684 248.919 58.1888 250.021 58.1888 251.123 58.1888 252.225 58.2623 253.915 58.2623 256.046M64.3604 244.878C63.6991 242.968 62.744 241.351 61.4215 240.102 58.8501 237.531 55.3235 236.208 50.8418 236.208L36.4415 236.208 36.4415 276.691 50.8418 276.691C55.3235 276.691 58.8501 275.368 61.4215 272.797 63.1848 271.107 64.3604 268.756 64.9481 265.964 65.389 264.127 65.5359 260.895 65.5359 256.192L65.5359 255.164C65.5359 252.813 65.5359 250.903 65.4624 249.654 65.389 248.331 65.0216 246.715 64.3604 244.878" fill="#231F20" transform="matrix(1 0 0 1.00024 625 342.475)"/><path d="M111.602 256.119C111.602 259.425 111.455 261.997 111.235 263.76 111.014 265.376 110.5 266.699 109.692 267.654 108.149 269.27 106.165 270.078 103.447 270.078L96.8344 270.078 96.8344 242.747 103.447 242.747C106.092 242.747 108.149 243.556 109.692 245.172 110.28 245.76 110.72 246.641 111.014 247.743 111.308 248.919 111.529 250.021 111.529 251.123 111.529 252.225 111.602 253.915 111.602 256.046M117.553 244.878C116.892 242.968 115.937 241.351 114.614 240.102 112.043 237.531 108.516 236.208 104.035 236.208L89.6343 236.208 89.6343 276.691 104.035 276.691C108.516 276.691 112.043 275.368 114.614 272.797 116.378 271.107 117.553 268.756 118.141 265.964 118.582 264.127 118.729 260.895 118.729 256.192L118.729 255.164C118.729 252.813 118.729 250.903 118.655 249.654 118.582 248.331 118.214 246.715 117.553 244.878" fill="#231F20" transform="matrix(1 0 0 1.00024 625 342.475)"/><path d="M142.901 276.691 169.203 276.691 169.203 270.078 150.101 270.078 150.101 259.499 166.411 259.499 166.411 252.96 150.101 252.96 150.101 242.747 169.203 242.747 169.203 236.135 142.901 236.135 142.901 276.691Z" fill="#231F20" transform="matrix(1 0 0 1.00024 625 342.475)"/><path d="M205.351 260.527 213.726 260.527 213.726 262.144C213.726 264.568 213.139 266.478 211.89 267.874 210.347 269.564 208.437 270.446 205.939 270.446 203.734 270.446 201.971 269.711 200.649 268.315 199.767 267.36 199.179 266.111 198.885 264.642 198.591 263.099 198.444 260.38 198.444 256.486 198.444 252.592 198.591 249.874 198.885 248.405 199.179 246.935 199.767 245.76 200.649 244.805 202.045 243.335 203.808 242.6 206.012 242.6 208.069 242.6 209.686 243.115 211.008 244.217 212.33 245.319 213.212 246.935 213.726 248.919L213.873 249.433 221.147 249.433 221 248.698C220.412 245.025 218.796 241.939 216.224 239.588 213.653 237.237 210.273 235.988 206.159 235.988 202.045 235.988 198.298 237.457 195.432 240.396 194.624 241.204 193.963 242.086 193.448 243.041 192.934 243.996 192.567 244.805 192.273 245.539 191.979 246.347 191.759 247.449 191.685 248.919 191.612 250.315 191.538 251.49 191.465 252.299 191.465 253.107 191.465 254.576 191.465 256.56 191.465 258.544 191.465 259.94 191.465 260.821 191.465 261.703 191.538 262.805 191.685 264.201 191.832 265.67 191.979 266.772 192.273 267.58 192.567 268.315 192.934 269.197 193.448 270.078 193.963 271.034 194.624 271.915 195.432 272.723 198.371 275.662 201.971 277.132 206.159 277.132 210.714 277.132 214.461 275.589 217.4 272.503 219.824 269.932 221.073 266.038 221.073 260.968L221.073 254.356 205.498 254.356 205.498 260.674Z" fill="#231F20" transform="matrix(1 0 0 1.00024 625 342.475)"/></g></svg>