<svg viewBox="0 0 17.34 23.64" xmlns="http://www.w3.org/2000/svg" xmlns:xlink="http://www.w3.org/1999/xlink" id="Layer_1" overflow="hidden"><defs></defs><path d="M15.73 1.32 15.74 1.32 15.74 1.32 15.73 1.32Z" fill="#F2ED59"/><path d="M14.1 0 0 2.44 0 22.03 1.61 22.03 1.61 3.81 15.73 1.32 14.1 0Z" fill="#241F21"/><path d="M15.74 22.03 1.61 22.03 1.61 23.64 17.34 23.64 17.34 2.61 15.74 1.32 15.74 22.03Z" fill="#241F21"/><rect x="4.46" y="5.42" width="8.43" height="1.61" fill="#706659"/><rect x="4.46" y="8.77" width="8.43" height="1.61" fill="#706659"/><rect x="4.46" y="12.13" width="8.43" height="1.61" fill="#706659"/><path d="M4.46 22.03 6.06 22.03 6.06 17.09 11.28 17.09 11.28 22.03 12.89 22.03 12.89 15.48 4.46 15.48 4.46 22.03Z" fill="#706659"/></svg>