<svg xmlns="http://www.w3.org/2000/svg" id="Layer_1" data-name="Layer 1" viewBox="0 0 528.9 314.4"><defs><style>      .cls-1 {        fill: #726658;      }      .cls-1, .cls-2 {        stroke-width: 0px;      }      .cls-2 {        fill: #231f20;      }    </style></defs><polygon class="cls-2" points="10.3 9.2 10.3 249.2 66.3 249.2 66.3 65.2 214.4 65.2 145 9.2 10.3 9.2"></polygon><polygon class="cls-1" points="214.4 65.2 214.4 249.2 270.4 204 270.4 110.4 214.4 65.2"></polygon><polygon class="cls-1" points="66.3 249.2 66.3 305.3 145 305.3 214.4 249.2 66.3 249.2"></polygon><path class="cls-2" d="M280.2,258.7h9c3.6,0,6.4,1.1,8.5,3.3.8.8,1.4,2,1.8,3.5.4,1.6.7,3.1.7,4.6,0,1.5.1,3.8.1,6.7,0,4.5-.2,8-.5,10.3-.3,2.2-1,4-2.1,5.3-2,2.2-4.8,3.3-8.4,3.3h-9v-37.1ZM308.4,261.5c-.9-2.6-2.2-4.8-4-6.5-3.5-3.5-8.3-5.3-14.4-5.3h-19.6v55.1h19.6c6.1,0,10.9-1.8,14.4-5.3,2.4-2.4,4-5.5,4.8-9.3.6-2.5.8-6.9.8-13.3v-1.3c0-3.3,0-5.8-.2-7.5-.1-1.8-.6-4-1.5-6.5"></path><path class="cls-2" d="M352.6,258.7h9c3.6,0,6.4,1.1,8.5,3.3.8.8,1.4,2,1.8,3.5.4,1.6.7,3.1.7,4.6,0,1.5.1,3.8.1,6.7,0,4.5-.2,8-.5,10.3-.3,2.2-1,4-2.1,5.3-2,2.2-4.8,3.3-8.4,3.3h-9v-37.1ZM380.8,261.5c-.9-2.6-2.2-4.8-4-6.5-3.5-3.5-8.3-5.3-14.4-5.3h-19.6v55.1h19.6c6.1,0,10.9-1.8,14.4-5.3,2.4-2.4,4-5.5,4.8-9.3.6-2.5.8-6.9.8-13.3v-1.3c0-3.3,0-5.8-.2-7.5-.1-1.8-.6-4-1.5-6.5"></path><polygon class="cls-2" points="415.2 249.7 415.2 304.8 451 304.8 451 295.8 425 295.8 425 281.4 447.2 281.4 447.2 272.5 425 272.5 425 258.7 451 258.7 451 249.7 415.2 249.7"></polygon><path class="cls-2" d="M500.2,282.8h11.4v2.1c0,3.3-.8,5.9-2.5,7.8-2,2.3-4.7,3.5-8.1,3.5s-5.4-1-7.2-2.9c-1.2-1.3-2-3-2.4-5-.4-2.1-.6-5.8-.6-11.1s.2-9,.6-11c.4-2,1.2-3.6,2.4-4.9,1.9-2,4.3-3,7.2-3s5,.8,6.8,2.2c1.8,1.5,3,3.7,3.7,6.4l.2.7h9.8l-.2-1c-.8-5-3-9.2-6.5-12.4-3.5-3.2-8.1-4.9-13.7-4.9s-10.7,2-14.6,5.9c-1.1,1.1-2,2.3-2.7,3.6-.7,1.3-1.2,2.4-1.6,3.4-.4,1.1-.7,2.6-.8,4.6-.2,1.9-.2,3.5-.3,4.6,0,1.2,0,3.1,0,5.8s0,4.6,0,5.8c0,1.2.1,2.7.3,4.6.2,2,.4,3.5.8,4.6.4,1,.9,2.2,1.6,3.4.7,1.3,1.6,2.5,2.7,3.6,3.9,3.9,8.9,5.9,14.6,5.9s11.3-2.1,15.3-6.3h0c3.3-3.5,5-8.8,5-15.7v-9h-21.2v8.6Z"></path></svg>